# xmcd
#
# Track frame offsets:
#	150
#	22848
#	42111
#	63653
#	82326
#	100690
#	122668
#	140653
#	160591
#
# Disc length: 2388 seconds
#
# Revision: 0
# Processed by: cddbd v1.5.1PL0 Copyright (c) Steve Scherf et al.
# Submitted via: dBpowerAMP V4.0
#
DISCID=70095209
DTITLE=Urmas Mass - Smooth Louch
DYEAR=2001
DGENRE=Blues
TTITLE0=Smooth Touch
TTITLE1=She Smiles
TTITLE2=Tonight
TTITLE3=St. Carmel
TTITLE4=DNF
TTITLE5=Hey, Girl
TTITLE6=South Bay
TTITLE7=Tell Me
TTITLE8=Find Me Love
EXTD=
EXTT0=
EXTT1=
EXTT2=
EXTT3=
EXTT4=
EXTT5=
EXTT6=
EXTT7=
EXTT8=
PLAYORDER=
